PathFileType	4	(X/Y/Z)	Patient4_TMGait_0pt8_01_left_19.trc.trc
DataRate	CameraRate	NumFrames	NumMarkers	Units	OrigDataRate	OrigDataStartFrame	OrigNumFrames
88.050314465409	88.050314465409	4	33	mm	88.050314465409	18	       141
Frame#	Time	Sacral			L.Shoulder			Chest			R.Shoulder			Neck			R.ASIS			L.ASIS			R.Thigh.Superior			R.Thigh.Lateral			R.Thigh.Inferior			R.Patella			L.Thigh.Superior			L.Thigh.Lateral			L.Thigh.Inferior			L.Patella			L.Shank.Superior			L.Shank.Lateral			L.Shank.Inferior			R.Shank.Superior			R.Shank.Lateral			R.Shank.Inferior			R.Heel			R.Midfoot.Superior			R.Midfoot.Lateral			R.Toe			L.Heel			L.Midfoot.Lateral			L.Midfoot.Superior			L.Toe			L.Elbow			L.Wrist			R.Elbow			R.Wrist			
		X1	Y1	Z1	X2	Y2	Z2	X3	Y3	Z3	X4	Y4	Z4	X5	Y5	Z5	X6	Y6	Z6	X7	Y7	Z7	X8	Y8	Z8	X9	Y9	Z9	X10	Y10	Z10	X11	Y11	Z11	X12	Y12	Z12	X13	Y13	Z13	X14	Y14	Z14	X15	Y15	Z15	X16	Y16	Z16	X17	Y17	Z17	X18	Y18	Z18	X19	Y19	Z19	X20	Y20	Z20	X21	Y21	Z21	X22	Y22	Z22	X23	Y23	Z23	X24	Y24	Z24	X25	Y25	Z25	X26	Y26	Z26	X27	Y27	Z27	X28	Y28	Z28	X29	Y29	Z29	X30	Y30	Z30	X31	Y31	Z31	X32	Y32	Z32	X33	Y33	Z33	

18	20.723071428571	912.726491551145	1005.191599621672	522.972059562514	1054.408227319149	1426.062547388040	312.845995438806	1185.410476509967	1360.560436846642	453.790941524886	1134.570997919687	1438.220317363633	638.294834588778	1073.830629113187	1488.464568062987	466.275762252739	1146.762824912675	935.532048517529	610.766587274003	1103.253787274048	953.386964999636	337.648915609692	1136.805705418142	721.445372884596	587.398856525320	1029.676026024174	629.955556892203	650.633501522118	1085.738087502525	563.395848661951	569.593436049852	1065.358797384407	479.909399839809	573.987944105758	1185.323165964819	780.276295011543	371.423072146193	1149.086480086342	651.028541860156	286.877507321465	1255.607758156808	597.446722818538	349.668716923335	1289.002854514143	536.270450158119	342.699518646768	1277.245760014046	463.119213100431	332.113894139124	1221.917072744808	328.489550354172	279.060299925038	1317.230604746228	235.997685348825	332.818150995173	1027.374480528862	397.666759908692	579.918429545549	944.850774237065	300.884334271349	638.256562074412	976.622146325987	203.240930695581	573.230634284872	830.571032998688	44.303004057187	533.962969930126	999.957611395189	96.752905165932	580.789886920657	908.631514078741	37.249267806409	613.639955960978	1117.361458248438	41.244920388704	616.607393568808	1250.425534036856	48.507998265031	370.081458018414	1325.840782127191	58.236429606839	291.631593939250	1387.750142634456	144.215705591529	311.768490845639	1524.671283949661	128.077031384214	289.639146613698	910.227559254423	1099.513736501150	233.344164462624	862.366045345360	845.284171672979	247.511422381659	1318.619396080162	1159.760924016800	754.967726164734	1548.904482145970	1238.500474365847	681.082730117620	
19	20.734428571429	913.099975628328	1004.202745354358	521.215028439163	1054.807612892920	1425.105344596790	311.652396870010	1185.603448755154	1359.460445404889	452.660345355192	1134.438991778230	1437.295292452867	636.852354812792	1073.919329284619	1487.218776764446	465.185358131822	1146.468681533300	934.096356372744	609.879232820705	1104.187607901838	951.877827383717	336.498080012854	1134.659652127242	719.704402485212	586.690569525125	1026.562427397753	629.100153736893	649.849948352065	1082.067265729763	562.022944920121	568.850340064905	1060.925740822148	478.391670730187	573.267851489893	1185.457354890674	777.874887640653	371.118748709581	1147.755022030742	648.215316810361	287.307850448847	1253.927888204039	594.354914811598	349.952285540871	1286.799992249074	533.536240930154	343.796781466646	1275.701576320264	460.673027129217	333.177581214569	1221.553595724021	325.302796307711	281.158581373618	1317.993537696038	234.124437781703	335.082717961971	1021.975810945497	396.543568532722	579.309892075246	938.424993047727	300.746811070024	637.944587249467	968.911633261190	202.689037772741	573.016818128378	821.442884598992	44.484818233734	534.058660825747	990.791064229247	96.579743813091	580.605672090934	899.502621385431	37.279142419973	613.731881489952	1108.189723368857	41.092958033947	616.694475105602	1253.234616365645	46.519449169594	373.310249727699	1328.410043119848	56.430455528002	294.672811061891	1389.757025998109	142.682661652628	314.436624332765	1526.738028057123	127.327017414354	292.107043312323	903.662311108903	1102.668989849416	233.469843764043	848.454822570381	850.057118680056	249.087931279832	1324.319376078162	1163.713986802262	751.311169740045	1549.214735119135	1254.055277694890	675.547427962028	
20	20.745785714286	913.613940742639	1003.049886963747	519.147851046562	1055.300962117202	1424.043685106680	310.282770018094	1185.809213790386	1358.357010730847	451.483510176080	1134.095349627558	1436.326298160326	635.309427924648	1073.937214896502	1485.895221852192	463.943967086880	1146.325705086790	932.606396900250	608.913777049548	1105.421421273736	950.303648072625	335.269942545688	1132.926024970066	717.930698789436	585.804214319896	1023.972795648708	628.113597895351	648.877617962174	1079.025044682629	560.535881833367	567.952328339453	1057.098755803972	476.676432276551	572.358686956609	1186.110176606192	775.468070419427	370.620578127343	1146.703821538470	645.295755244166	287.898504163746	1252.632815025911	591.244028582319	350.213372877314	1284.739573767603	530.360545188979	344.870208219942	1273.855948444017	457.644447735805	334.317806922348	1219.803615538831	321.939305645240	283.660880629697	1316.779179383285	231.458757445184	337.638104577791	1017.095695423234	395.211519385657	578.513009958482	932.400450803007	300.570550472160	637.522055493929	961.416223608641	202.054138904213	572.724906263983	812.333873845011	44.752769561319	534.175959611714	981.667883195966	96.431700509203	580.434496590495	890.399812020506	37.349266397851	613.834004648371	1099.035455087445	40.890239826555	616.800001950369	1252.692403151270	44.552813515505	377.099633021127	1327.348824287668	54.169566366830	297.993295496684	1388.990484705211	139.912336868982	317.364667693125	1525.705262994390	124.057359617828	294.209631926580	898.081034809007	1105.483788014680	233.491907193699	835.795248739241	854.643769182831	250.508189120452	1329.186732684256	1167.297261416051	747.568102953227	1548.501956976797	1268.185943173127	670.245900951586	
21	20.757142857143	914.240854436582	1001.743876014983	516.780305960751	1055.907172038816	1422.871954183738	308.724459180463	1186.040264250405	1357.243569459184	450.254212046822	1133.557853513039	1435.314157655200	633.665512989245	1073.905842805460	1484.502237813002	462.530777227639	1146.323796995541	931.072345527673	607.868158467228	1106.930051572266	948.678068256179	333.974021971137	1131.619836702612	716.126633047777	584.786767270395	1021.890322038052	626.998894259272	647.724198087618	1076.615689238065	558.926586754855	566.930136089614	1053.881237485415	474.750642798569	571.278600148683	1187.201616900817	773.044451734245	369.940006283392	1145.908296550154	642.323799899009	288.588637398250	1251.682734675792	588.159677015358	350.479788399978	1282.796332696156	526.833339969359	345.967770533525	1271.788145015669	454.152295184607	335.526769928328	1216.973784676855	318.440924484178	286.368352768653	1313.945335660899	228.109683433900	340.373314697790	1012.723840247586	393.679882913311	577.540484494972	926.760807252391	300.367778266186	636.994499921801	954.127910368276	201.354907731756	572.361745330631	803.242432633198	45.138363285846	534.321493336054	972.599885479449	96.324627271894	580.293646459545	881.323673975004	37.475484908251	613.946703236281	1089.904708769713	40.634807233382	616.926027072995	1249.230812492207	42.657892220324	381.113380010508	1323.234863438409	51.542173962871	301.378311221645	1385.965706493109	136.021915521785	320.487559145385	1522.161253567105	118.422341208811	296.121122956782	893.486951588008	1107.870370251397	233.371376054099	824.458418504343	858.930727460296	251.714676117538	1333.219138682150	1170.440434293533	743.813794703224	1546.876494238584	1280.857731340908	665.209315072133	
